<svg width="222" height="403" viewBox="0 0 222 403" fill="none" xmlns="http://www.w3.org/2000/svg">
<g clip-path="url(#clip0)">
<path d="M124.393 53.2407H96.8484V109.576H124.393V53.2407Z" fill="#FECAD1"/>
<path fill-rule="evenodd" clip-rule="evenodd" d="M124.06 77.2192V53.2407L96.8484 52V77.1233L97.2539 77.3773L111.016 80.6942H111.098L123.807 77.3773L124.06 77.2192Z" fill="#FBB9C2"/>
<path fill-rule="evenodd" clip-rule="evenodd" d="M62.2957 225.08L69.3032 195.348V165.348V139.348V122.058V90L45.1499 102.348L39.9999 137.348V165.348V195.348L45.1499 225.08H62.2957Z" fill="#FECAD1"/>
<path fill-rule="evenodd" clip-rule="evenodd" d="M45.207 225.083L42.5303 247.413L45.207 254.029H62.82L66.2654 243.691L62.82 232.94L62.4981 225.083H45.207Z" fill="#FECAD1"/>
<path fill-rule="evenodd" clip-rule="evenodd" d="M160.704 225.08L153.697 195.348V165.348V139.348V122.058V90L177.85 102.348L183 137.348V165.348V195.348L177.85 225.08H160.704Z" fill="#FECAD1"/>
<path fill-rule="evenodd" clip-rule="evenodd" d="M177.793 225.083L180.47 247.413L177.793 254.029H160.18L156.735 243.691L160.18 232.94L160.502 225.083H177.793Z" fill="#FECAD1"/>
<path fill-rule="evenodd" clip-rule="evenodd" d="M98.0207 90L111.511 109.92L123.221 90H153.111L157.213 122.348L163.074 170.5L153.111 216.365H69.3034L59.3403 170.5L64.6149 122.348L69.3034 90H98.0207Z" fill="#B1B2C1"/>
<path d="M153.697 216.017H69.3032V235.626H153.697V216.017Z" fill="#00065C"/>
<path fill-rule="evenodd" clip-rule="evenodd" d="M73.9919 236H109.156L104.165 386H73.9919V293.861L73.9919 236Z" fill="#FECAD1"/>
<path fill-rule="evenodd" clip-rule="evenodd" d="M108.248 263.33H73.223L69.3032 235.007H109.156L108.248 263.33Z" fill="#00065C"/>
<path fill-rule="evenodd" clip-rule="evenodd" d="M147.836 236H112.672L116.677 386H147.836V294.361V236Z" fill="#FECAD1"/>
<path fill-rule="evenodd" clip-rule="evenodd" d="M113.258 263H147.817L153.697 235L112.672 235L113.258 263Z" fill="#00065C"/>
<path fill-rule="evenodd" clip-rule="evenodd" d="M75.1447 385.647H103.295V403.076H51.7212L59.6454 391.249L75.1447 385.647Z" fill="black"/>
<path fill-rule="evenodd" clip-rule="evenodd" d="M145.997 385.647H117.361V403.076H170.395L162.246 391.249L145.997 385.647Z" fill="black"/>
<path fill-rule="evenodd" clip-rule="evenodd" d="M111.229 78.1587L120.908 75L136.468 65V53.3982V25.7364L131.502 15.648L120.908 7.51212L111.229 5.47946H111.149L101.471 7.51212L90.8781 15.648L85.9102 25.7364V53.3982V63.5L101.471 75L111.149 78.1587H111.229Z" fill="#FECAD1"/>
<path d="M103.154 54.1286C103.154 56.6874 101.163 58.7595 98.708 58.7595C96.2513 58.7595 94.262 56.6874 94.262 54.1286C94.262 51.5714 96.2513 49.4977 98.708 49.4977C101.163 49.4977 103.154 51.5714 103.154 54.1286Z" fill="#FBB9C2"/>
<path d="M128.135 54.1286C128.135 56.6874 126.144 58.7595 123.689 58.7595C121.232 58.7595 119.243 56.6874 119.243 54.1286C119.243 51.5714 121.232 49.4977 123.689 49.4977C126.144 49.4977 128.135 51.5714 128.135 54.1286Z" fill="#FBB9C2"/>
<path d="M102.789 36.6701L98.9487 35.678L94.6368 36.6151" stroke="#181C52" stroke-miterlimit="10" stroke-linecap="round" stroke-linejoin="round"/>
<path d="M127.402 36.6733L123.451 35.6804L119.25 36.6183" stroke="#181C52" stroke-miterlimit="10" stroke-linecap="round" stroke-linejoin="round"/>
<path d="M100.511 42.6504C100.511 43.4876 99.9036 44.168 99.1544 44.168C98.4018 44.168 97.794 43.4876 97.794 42.6504C97.794 41.8101 98.4018 41.1312 99.1544 41.1312C99.9036 41.1312 100.511 41.8101 100.511 42.6504Z" fill="black"/>
<path d="M124.947 42.6504C124.947 43.4876 124.339 44.168 123.59 44.168C122.838 44.168 122.23 43.4876 122.23 42.6504C122.23 41.8101 122.838 41.1312 123.59 41.1312C124.339 41.1312 124.947 41.8101 124.947 42.6504Z" fill="black"/>
<path d="M110.278 52.1488L112.987 51.2184L114.079 48.7549L111.636 42.6499" stroke="#E45E8E" stroke-miterlimit="9" stroke-linecap="round"/>
<path d="M107.57 59.5127L112.186 61.1709L116.263 59.4999" stroke="#E45E8E" stroke-miterlimit="9" stroke-linecap="round"/>
<path fill-rule="evenodd" clip-rule="evenodd" d="M85.4404 49.7459L82.3832 51.0477L77.8891 49.7459L75 43.8537V39.6575L80.1361 34.776L84.9512 37.0541L86.2353 39.983V49.0951L85.4404 49.7459Z" fill="#FECAD1"/>
<path d="M78.2357 39.9656L81.0042 39.9727L82.9237 42.197L82.9352 46.7844" stroke="#E45E8E" stroke-miterlimit="9" stroke-linecap="round"/>
<path d="M82.1665 41.326L79.2074 43.7706" stroke="#E45E8E" stroke-miterlimit="9" stroke-linecap="round"/>
<path fill-rule="evenodd" clip-rule="evenodd" d="M136.94 49.7459L139.998 51.0477L144.492 49.7459L147.381 43.8537V39.6575L142.245 34.776L137.43 37.0541L136.146 39.983V49.0951L136.94 49.7459Z" fill="#FECAD1"/>
<path fill-rule="evenodd" clip-rule="evenodd" d="M92.3049 25.2512L110.912 20.8626L129.667 25.2512L133.818 37.1632L136.071 45L139.452 23.9973L136.071 10.518L121.431 0H111.513H99.2619L85.9005 10.518L82.5195 23.9973L85.9005 45L87.5605 36.8497L92.3049 25.2512Z" fill="black"/>
<path d="M144.587 39.9656L141.977 39.9726L140.167 42.1969L140.156 46.7843" stroke="#E45E8E" stroke-miterlimit="9" stroke-linecap="round"/>
<path d="M140.868 41.3256L143.658 43.7711" stroke="#E45E8E" stroke-miterlimit="9" stroke-linecap="round"/>
</g>
<defs>
<clipPath id="clip0">
<rect width="222" height="403" fill="white"/>
</clipPath>
</defs>
</svg>
