<svg width="222" height="403" viewBox="0 0 222 403" fill="none" xmlns="http://www.w3.org/2000/svg">
<g clip-path="url(#clip0)">
<path d="M119.366 53.2407H101.746L98.5 109.576H122L119.366 53.2407Z" fill="#FECAD1"/>
<path fill-rule="evenodd" clip-rule="evenodd" d="M120.5 77.1233L119.367 53.2407H101.746L100.654 77.1233L101 77.3773L110.587 80.6942H110.657L120.285 77.2814L120.5 77.1233Z" fill="#FBB9C2"/>
<path fill-rule="evenodd" clip-rule="evenodd" d="M99.5 90L111.009 109.92L121 90H146.5V122.348L139.701 216.365H81.3992L75 122.348L75 90H99.5Z" fill="#B1B2C1"/>
<path d="M139.701 216.017H81.3992V235.626H139.701V216.017Z" fill="#00065C"/>
<path fill-rule="evenodd" clip-rule="evenodd" d="M81.3992 235.631H105.501L101.74 385.651H86.0933L79 293.5L81.3992 235.631Z" fill="#FECAD1"/>
<path fill-rule="evenodd" clip-rule="evenodd" d="M104.807 263.33H80L81.3992 235.007H105.501L104.807 263.33Z" fill="#00065C"/>
<path fill-rule="evenodd" clip-rule="evenodd" d="M139.703 235.631H115.601L119.362 385.651H135.009L142 294L139.703 235.631Z" fill="#FECAD1"/>
<path fill-rule="evenodd" clip-rule="evenodd" d="M116.295 263.33H141L139.703 235.007H115.601L116.295 263.33Z" fill="#00065C"/>
<path fill-rule="evenodd" clip-rule="evenodd" d="M70.521 224.732L73.0427 191.5V160.992V139.5L75.3992 121.71V89.6521L58.5851 102L55 137L56.5 165L55 195L58.5851 224.732H70.521Z" fill="#FECAD1"/>
<path fill-rule="evenodd" clip-rule="evenodd" d="M58.6248 224.736L56.7615 247.065L58.6248 253.681H70.886L73.2845 243.343L70.886 232.592L70.6618 224.736H58.6248Z" fill="#FECAD1"/>
<path fill-rule="evenodd" clip-rule="evenodd" d="M150.878 225.08L148.356 191.848V161.34V139.848L146 122.058V90L162.814 102.348L166.399 137.348L164.899 165.348L166.399 195.348L162.814 225.08H150.878Z" fill="#FECAD1"/>
<path fill-rule="evenodd" clip-rule="evenodd" d="M162.774 225.083L164.638 247.413L162.774 254.029H150.513L148.115 243.691L150.513 232.94L150.737 225.083H162.774Z" fill="#FECAD1"/>
<path fill-rule="evenodd" clip-rule="evenodd" d="M86.3602 385.647H101.834V403.076H60L66.4277 391.249L86.3602 385.647Z" fill="black"/>
<path fill-rule="evenodd" clip-rule="evenodd" d="M134.885 385.647H119.411V403.076H161.245L154.818 391.249L134.885 385.647Z" fill="black"/>
<path fill-rule="evenodd" clip-rule="evenodd" d="M110.651 75.1066L119.146 71.9479L128.444 65.1138L132.802 53.3982V25.7364L128.444 15.648L119.146 7.51212L110.651 5.47946H110.581L102.086 7.51212L92.7889 15.648L88.4286 25.7364V53.3982L92.7889 65.1138L102.086 71.9479L110.581 75.1066H110.651Z" fill="#FECAD1"/>
<path d="M103.563 54.1286C103.563 56.6874 101.816 58.7595 99.661 58.7595C97.5048 58.7595 95.7587 56.6874 95.7587 54.1286C95.7587 51.5714 97.5048 49.4977 99.661 49.4977C101.816 49.4977 103.563 51.5714 103.563 54.1286Z" fill="#FBB9C2"/>
<path d="M125.489 54.1286C125.489 56.6874 123.741 58.7595 121.586 58.7595C119.43 58.7595 117.684 56.6874 117.684 54.1286C117.684 51.5714 119.43 49.4977 121.586 49.4977C123.741 49.4977 125.489 51.5714 125.489 54.1286Z" fill="#FBB9C2"/>
<path d="M103.243 36.6702L99.8723 35.678L96.0878 36.6151" stroke="#181C52" stroke-miterlimit="10" stroke-linecap="round" stroke-linejoin="round"/>
<path d="M124.845 36.6733L121.378 35.6804L117.69 36.6183" stroke="#181C52" stroke-miterlimit="10" stroke-linecap="round" stroke-linejoin="round"/>
<path d="M101.244 42.6504C101.244 43.4876 100.711 44.168 100.053 44.168C99.3924 44.168 98.8589 43.4876 98.8589 42.6504C98.8589 41.8101 99.3924 41.1312 100.053 41.1312C100.711 41.1312 101.244 41.8101 101.244 42.6504Z" fill="black"/>
<path d="M122.691 42.6504C122.691 43.4876 122.158 44.168 121.5 44.168C120.839 44.168 120.306 43.4876 120.306 42.6504C120.306 41.8101 120.839 41.1312 121.5 41.1312C122.158 41.1312 122.691 41.8101 122.691 42.6504Z" fill="black"/>
<path d="M109.816 52.1488L112.193 51.2184L113.152 48.7549L111.008 42.6499" stroke="#E45E8E" stroke-miterlimit="9" stroke-linecap="round"/>
<path d="M107.44 59.5127L111.491 61.1716L115.069 59.5013" stroke="#E45E8E" stroke-miterlimit="9" stroke-linecap="round"/>
<path fill-rule="evenodd" clip-rule="evenodd" d="M88.0163 49.7459L85.3329 51.0477L81.3885 49.7459L78.8528 43.8537V39.6575L83.3607 34.776L87.5869 37.0541L88.7139 39.983V49.0951L88.0163 49.7459Z" fill="#FECAD1"/>
<path d="M81.6927 39.9656L84.1226 39.9726L85.8073 42.1969L85.8175 46.7843" stroke="#E45E8E" stroke-miterlimit="9" stroke-linecap="round"/>
<path d="M85.1432 41.3251L82.5472 43.7717" stroke="#E45E8E" stroke-miterlimit="9" stroke-linecap="round"/>
<path fill-rule="evenodd" clip-rule="evenodd" d="M133.217 49.7459L135.901 51.0477L139.845 49.7459L142.381 43.8537V39.6575L137.873 34.776L133.647 37.0541L132.52 39.983V49.0951L133.217 49.7459Z" fill="#FECAD1"/>
<path fill-rule="evenodd" clip-rule="evenodd" d="M94.0948 25.0717L110.552 20.7143L127.141 25.0717L130.813 36.8989L132.805 44.68L135.796 23.8267L132.805 10.4432L119.856 0H111.084H100.248L88.4303 10.4432L85.4399 23.8267L88.4303 44.68L89.8985 36.5877L94.0948 25.0717Z" fill="black"/>
<path d="M139.78 39.9656L137.35 39.9726L135.665 42.1969L135.655 46.7843" stroke="#E45E8E" stroke-miterlimit="9" stroke-linecap="round"/>
<path d="M136.318 41.3251L138.914 43.7717" stroke="#E45E8E" stroke-miterlimit="9" stroke-linecap="round"/>
</g>
<defs>
<clipPath id="clip0">
<rect width="222" height="403" fill="white"/>
</clipPath>
</defs>
</svg>
