<svg width="222" height="403" viewBox="0 0 222 403" fill="none" xmlns="http://www.w3.org/2000/svg">
<g clip-path="url(#clip0)">
<path d="M122 53.2407H98.5V109.576H122V53.2407Z" fill="#FECAD1"/>
<path fill-rule="evenodd" clip-rule="evenodd" d="M121.715 77.2192V53.2407L98.5 52V77.1233L98.8459 77.3773L110.587 80.6942H110.657L121.5 77.3773L121.715 77.2192Z" fill="#FBB9C2"/>
<path fill-rule="evenodd" clip-rule="evenodd" d="M69.0216 225.08L75 195.348V165.348V139.348V122.058V90L54.3937 102.348L50 137.348V165.348V195.348L54.3937 225.08H69.0216Z" fill="#FECAD1"/>
<path fill-rule="evenodd" clip-rule="evenodd" d="M54.4424 225.083L52.1588 247.413L54.4424 254.029H69.4689L72.4084 243.691L69.4689 232.94L69.1943 225.083H54.4424Z" fill="#FECAD1"/>
<path fill-rule="evenodd" clip-rule="evenodd" d="M152.978 225.08L147 195.348V165.348V139.348V122.058V90L167.606 102.348L172 137.348V165.348V195.348L167.606 225.08H152.978Z" fill="#FECAD1"/>
<path fill-rule="evenodd" clip-rule="evenodd" d="M167.558 225.083L169.841 247.413L167.558 254.029H152.531L149.592 243.691L152.531 232.94L152.806 225.083H167.558Z" fill="#FECAD1"/>
<path fill-rule="evenodd" clip-rule="evenodd" d="M99.5 90L111.009 109.92L121 90H146.5L150 122.348L155 170.5L146.5 216.365H75L66.5 170.5L71 122.348L75 90H99.5Z" fill="#B1B2C1"/>
<path d="M147 216.017H75V235.626H147V216.017Z" fill="#00065C"/>
<path fill-rule="evenodd" clip-rule="evenodd" d="M79 236H109L104.742 386H79V293.861L79 236Z" fill="#FECAD1"/>
<path fill-rule="evenodd" clip-rule="evenodd" d="M108.226 263.33H78.3441L75 235.007H109L108.226 263.33Z" fill="#00065C"/>
<path fill-rule="evenodd" clip-rule="evenodd" d="M142 236H112L115.417 386H142V294.361V236Z" fill="#FECAD1"/>
<path fill-rule="evenodd" clip-rule="evenodd" d="M112.5 263H141.984L147 235L112 235L112.5 263Z" fill="#00065C"/>
<path fill-rule="evenodd" clip-rule="evenodd" d="M79.9837 385.647H104V403.076H60L66.7605 391.249L79.9837 385.647Z" fill="black"/>
<path fill-rule="evenodd" clip-rule="evenodd" d="M140.431 385.647H116V403.076H161.245L154.294 391.249L140.431 385.647Z" fill="black"/>
<path fill-rule="evenodd" clip-rule="evenodd" d="M111.229 78.1587L120.908 75L136.468 65V53.3982V25.7364L131.502 15.648L120.908 7.51212L111.229 5.47946H111.149L101.471 7.51212L90.8781 15.648L85.9102 25.7364V53.3982V63.5L101.471 75L111.149 78.1587H111.229Z" fill="#FECAD1"/>
<path d="M103.154 54.1286C103.154 56.6874 101.163 58.7595 98.7079 58.7595C96.2512 58.7595 94.2619 56.6874 94.2619 54.1286C94.2619 51.5714 96.2512 49.4977 98.7079 49.4977C101.163 49.4977 103.154 51.5714 103.154 54.1286Z" fill="#FBB9C2"/>
<path d="M128.135 54.1286C128.135 56.6874 126.144 58.7595 123.689 58.7595C121.232 58.7595 119.243 56.6874 119.243 54.1286C119.243 51.5714 121.232 49.4977 123.689 49.4977C126.144 49.4977 128.135 51.5714 128.135 54.1286Z" fill="#FBB9C2"/>
<path d="M102.789 36.6701L98.9485 35.678L94.6365 36.6151" stroke="#181C52" stroke-miterlimit="10" stroke-linecap="round" stroke-linejoin="round"/>
<path d="M127.402 36.6733L123.451 35.6804L119.25 36.6183" stroke="#181C52" stroke-miterlimit="10" stroke-linecap="round" stroke-linejoin="round"/>
<path d="M100.511 42.6504C100.511 43.4876 99.9036 44.168 99.1544 44.168C98.4018 44.168 97.794 43.4876 97.794 42.6504C97.794 41.8101 98.4018 41.1312 99.1544 41.1312C99.9036 41.1312 100.511 41.8101 100.511 42.6504Z" fill="black"/>
<path d="M124.947 42.6504C124.947 43.4876 124.339 44.168 123.59 44.168C122.838 44.168 122.23 43.4876 122.23 42.6504C122.23 41.8101 122.838 41.1312 123.59 41.1312C124.339 41.1312 124.947 41.8101 124.947 42.6504Z" fill="black"/>
<path d="M110.278 52.1488L112.987 51.2184L114.079 48.7549L111.636 42.6499" stroke="#E45E8E" stroke-miterlimit="9" stroke-linecap="round"/>
<path d="M107.57 59.5127L112.186 61.1709L116.262 59.4999" stroke="#E45E8E" stroke-miterlimit="9" stroke-linecap="round"/>
<path fill-rule="evenodd" clip-rule="evenodd" d="M85.4404 49.7459L82.3832 51.0477L77.8891 49.7459L75 43.8537V39.6575L80.1361 34.776L84.9512 37.0541L86.2353 39.983V49.0951L85.4404 49.7459Z" fill="#FECAD1"/>
<path d="M78.2357 39.9656L81.0042 39.9727L82.9237 42.197L82.9352 46.7844" stroke="#E45E8E" stroke-miterlimit="9" stroke-linecap="round"/>
<path d="M82.1665 41.326L79.2074 43.7706" stroke="#E45E8E" stroke-miterlimit="9" stroke-linecap="round"/>
<path fill-rule="evenodd" clip-rule="evenodd" d="M136.94 49.7459L139.998 51.0477L144.492 49.7459L147.381 43.8537V39.6575L142.245 34.776L137.43 37.0541L136.146 39.983V49.0951L136.94 49.7459Z" fill="#FECAD1"/>
<path fill-rule="evenodd" clip-rule="evenodd" d="M92.3047 25.2512L110.912 20.8626L129.667 25.2512L133.818 37.1632L136.071 45L139.452 23.9973L136.071 10.518L121.431 0H111.513H99.2618L85.9004 10.518L82.5194 23.9973L85.9004 45L87.5603 36.8497L92.3047 25.2512Z" fill="black"/>
<path d="M144.587 39.9656L141.977 39.9726L140.167 42.1969L140.156 46.7843" stroke="#E45E8E" stroke-miterlimit="9" stroke-linecap="round"/>
<path d="M140.868 41.3256L143.658 43.7711" stroke="#E45E8E" stroke-miterlimit="9" stroke-linecap="round"/>
</g>
<defs>
<clipPath id="clip0">
<rect width="222" height="403" fill="white"/>
</clipPath>
</defs>
</svg>
