<svg width="222" height="403" viewBox="0 0 222 403" fill="none" xmlns="http://www.w3.org/2000/svg">
<g clip-path="url(#clip0)">
<path d="M117 53H104V110H117V53Z" fill="#FECAD1"/>
<path fill-rule="evenodd" clip-rule="evenodd" d="M117 77.6171V53H104V77.5193L104.255 77.7783L110.522 81H110.574L116.841 77.7783L117 77.6171Z" fill="#FBB9C2"/>
<path fill-rule="evenodd" clip-rule="evenodd" d="M104 89.6521L111.009 109.572L117 89.6521H139.701V124L133.5 171.5L139.701 216.017H81.3992L88.5 171.5L81.3992 124V89.6521H104Z" fill="#B1B2C1"/>
<path fill-rule="evenodd" clip-rule="evenodd" d="M144.581 224.732V191L143.344 136.5L139.703 121.71V89.6521L156.517 109.606V224.732H144.581Z" fill="#FECAD1"/>
<path fill-rule="evenodd" clip-rule="evenodd" d="M76.521 224.732V183.5L77.7578 138.5L81.3992 121.71V89.6521L64.5851 109.606V224.732H76.521Z" fill="#FECAD1"/>
<path d="M134.5 216.017H85.5L88 235.626H131.5L134.5 216.017Z" fill="#00065C"/>
<path fill-rule="evenodd" clip-rule="evenodd" d="M64.6249 224.736L62.7615 247.065L64.6249 253.681H76.886L79.2845 243.343L76.886 232.592L76.6619 224.736H64.6249Z" fill="#FECAD1"/>
<path fill-rule="evenodd" clip-rule="evenodd" d="M156.621 224.736L158.484 247.065L156.621 253.681H144.36L141.961 243.343L144.36 232.592L144.584 224.736H156.621Z" fill="#FECAD1"/>
<path fill-rule="evenodd" clip-rule="evenodd" d="M90 235.631H105.501L101.74 385.651H94L90 310.5V235.631Z" fill="#FECAD1"/>
<path fill-rule="evenodd" clip-rule="evenodd" d="M104.807 263.33H89.5L88 235.007H105.501L104.807 263.33Z" fill="#00065C"/>
<path fill-rule="evenodd" clip-rule="evenodd" d="M94 385.647H101.834V403.076H60L68.5 394L94 385.647Z" fill="black"/>
<path fill-rule="evenodd" clip-rule="evenodd" d="M129.501 235.624H114L117.761 385.644H125.501L129.501 310.493V235.624Z" fill="#FECAD1"/>
<path fill-rule="evenodd" clip-rule="evenodd" d="M114.695 263.323H130.001L131.501 235H114L114.695 263.323Z" fill="#00065C"/>
<path fill-rule="evenodd" clip-rule="evenodd" d="M125.501 385.64H117.667V403.069H159.501L151.001 393.993L125.501 385.64Z" fill="black"/>
<path fill-rule="evenodd" clip-rule="evenodd" d="M110.651 75.1066L119.146 71.9479L125.5 63.5L132.802 53.3982V25.7364L128.444 15.648L119.146 7.51212L110.651 5.47946H110.581L102.086 7.51212L92.7889 15.648L88.4286 25.7364V53.3982L95 63.5L102.086 71.9479L110.581 75.1066H110.651Z" fill="#FECAD1"/>
<path d="M103.563 54.1286C103.563 56.6874 101.816 58.7595 99.6611 58.7595C97.5049 58.7595 95.7589 56.6874 95.7589 54.1286C95.7589 51.5714 97.5049 49.4977 99.6611 49.4977C101.816 49.4977 103.563 51.5714 103.563 54.1286Z" fill="#FBB9C2"/>
<path d="M125.489 54.1286C125.489 56.6874 123.741 58.7595 121.586 58.7595C119.43 58.7595 117.684 56.6874 117.684 54.1286C117.684 51.5714 119.43 49.4977 121.586 49.4977C123.741 49.4977 125.489 51.5714 125.489 54.1286Z" fill="#FBB9C2"/>
<path d="M103.243 36.6702L99.8724 35.678L96.0878 36.6151" stroke="#181C52" stroke-miterlimit="10" stroke-linecap="round" stroke-linejoin="round"/>
<path d="M124.845 36.6733L121.378 35.6804L117.69 36.6183" stroke="#181C52" stroke-miterlimit="10" stroke-linecap="round" stroke-linejoin="round"/>
<path d="M101.244 42.6504C101.244 43.4876 100.711 44.168 100.053 44.168C99.3925 44.168 98.859 43.4876 98.859 42.6504C98.859 41.8101 99.3925 41.1312 100.053 41.1312C100.711 41.1312 101.244 41.8101 101.244 42.6504Z" fill="black"/>
<path d="M122.691 42.6504C122.691 43.4876 122.158 44.168 121.5 44.168C120.839 44.168 120.306 43.4876 120.306 42.6504C120.306 41.8101 120.839 41.1312 121.5 41.1312C122.158 41.1312 122.691 41.8101 122.691 42.6504Z" fill="black"/>
<path d="M109.816 52.1488L112.193 51.2184L113.152 48.7549L111.008 42.6499" stroke="#E45E8E" stroke-miterlimit="9" stroke-linecap="round"/>
<path d="M107.44 59.5127L111.491 61.1716L115.069 59.5013" stroke="#E45E8E" stroke-miterlimit="9" stroke-linecap="round"/>
<path fill-rule="evenodd" clip-rule="evenodd" d="M88.0163 49.7459L85.3329 51.0477L81.3885 49.7459L78.8528 43.8537V39.6575L83.3607 34.776L87.5869 37.0541L88.7139 39.983V49.0951L88.0163 49.7459Z" fill="#FECAD1"/>
<path d="M81.6926 39.9656L84.1226 39.9726L85.8073 42.1969L85.8174 46.7843" stroke="#E45E8E" stroke-miterlimit="9" stroke-linecap="round"/>
<path d="M85.1432 41.3251L82.5472 43.7717" stroke="#E45E8E" stroke-miterlimit="9" stroke-linecap="round"/>
<path fill-rule="evenodd" clip-rule="evenodd" d="M133.217 49.7459L135.901 51.0477L139.845 49.7459L142.381 43.8537V39.6575L137.873 34.776L133.647 37.0541L132.52 39.983V49.0951L133.217 49.7459Z" fill="#FECAD1"/>
<path fill-rule="evenodd" clip-rule="evenodd" d="M94.0948 25.0717L110.552 20.7143L127.141 25.0717L130.812 36.8989L132.805 44.68L135.796 23.8267L132.805 10.4432L119.856 0H111.084H100.248L88.4303 10.4432L85.4399 23.8267L88.4303 44.68L89.8985 36.5877L94.0948 25.0717Z" fill="black"/>
<path d="M139.78 39.9656L137.35 39.9726L135.665 42.1969L135.655 46.7843" stroke="#E45E8E" stroke-miterlimit="9" stroke-linecap="round"/>
<path d="M136.318 41.3251L138.914 43.7717" stroke="#E45E8E" stroke-miterlimit="9" stroke-linecap="round"/>
</g>
<defs>
<clipPath id="clip0">
<rect width="222" height="403" fill="white"/>
</clipPath>
</defs>
</svg>
